<?xml version="1.0" standalone="no"?>
<!DOCTYPE svg PUBLIC "-//W3C//DTD SVG 20010904//EN"
 "http://www.w3.org/TR/2001/REC-SVG-20010904/DTD/svg10.dtd">
<svg version="1.0" xmlns="http://www.w3.org/2000/svg"
 width="1280.000000pt" height="720.000000pt" viewBox="0 0 1280.000000 720.000000"
 preserveAspectRatio="xMidYMid meet">

<g transform="translate(0.000000,720.000000) scale(0.100000,-0.100000)"
fill="#000000" stroke="none">
<path d="M0 3600 l0 -3600 6400 0 6400 0 0 3600 0 3600 -6400 0 -6400 0 0
-3600z m6111 2279 c44 -15 78 -46 95 -86 l14 -33 174 0 174 0 12 29 c15 38 57
76 99 90 24 8 281 11 902 11 856 0 869 0 889 -20 28 -28 25 -58 -9 -112 -21
-32 -38 -48 -59 -53 -22 -4 -36 -18 -56 -55 -21 -39 -35 -52 -70 -65 -35 -13
-48 -25 -62 -57 -28 -63 -7 -54 -499 -198 -313 -91 -301 -87 -315 -119 -28
-68 -73 -90 -350 -165 -113 -31 -255 -70 -316 -86 -138 -38 -151 -34 -254 66
-42 41 -80 74 -86 74 -5 0 -39 -30 -74 -66 -36 -37 -84 -75 -108 -86 l-43 -19
-112 30 c-347 95 -488 134 -535 147 -61 18 -114 60 -132 104 -13 32 -8 30
-265 105 -124 37 -423 124 -464 137 -38 11 -68 39 -93 86 -11 20 -32 38 -57
48 -29 11 -48 29 -66 60 -16 28 -40 51 -63 62 -41 19 -82 81 -82 124 0 61 -40
58 911 58 621 0 876 -3 900 -11z m-1955 -1576 c26 -65 69 -167 96 -227 26 -59
48 -110 48 -112 0 -2 -18 -4 -40 -4 -22 0 -40 5 -40 11 0 6 -14 44 -31 85
l-31 74 -78 0 -77 0 -30 -82 c-27 -73 -33 -83 -57 -86 -14 -2 -26 1 -26 6 0 6
21 54 46 109 25 54 66 145 90 202 54 124 62 141 73 141 4 0 30 -53 57 -117z
m420 96 c16 -13 18 -38 4 -59 -8 -13 -13 -11 -32 12 -26 31 -63 41 -93 25 -76
-39 -50 -124 49 -158 22 -8 55 -28 73 -45 29 -28 33 -38 33 -82 0 -56 -28
-100 -81 -127 -36 -19 -122 -19 -159 0 -26 13 -29 19 -23 48 8 44 12 46 34 15
38 -52 120 -57 155 -10 19 25 17 86 -3 104 -10 9 -47 30 -83 47 -42 19 -71 41
-83 60 -43 72 0 167 84 184 35 7 110 -1 125 -14z m804 -9 c84 -43 127 -127
117 -231 -12 -137 -97 -209 -246 -209 -150 0 -241 89 -241 234 1 155 107 244
274 230 33 -3 76 -14 96 -24z m305 -50 c38 -41 109 -117 157 -168 l88 -93 0
166 c0 164 0 165 23 165 l22 0 -3 -227 c-2 -125 -6 -230 -9 -233 -3 -3 -27 20
-54 50 -132 148 -265 288 -273 289 -5 1 -6 -72 -3 -164 l5 -165 -26 0 -27 0 8
157 c4 87 5 191 2 231 -5 58 -3 73 7 70 7 -2 44 -37 83 -78z m808 -47 c88
-172 111 -213 118 -213 3 0 42 69 86 153 45 83 89 161 97 172 19 27 23 16 36
-110 22 -218 30 -287 36 -311 6 -22 3 -24 -29 -24 -41 0 -41 0 -53 150 -3 47
-9 103 -13 125 l-6 40 -43 -80 c-24 -44 -59 -115 -79 -157 -20 -43 -40 -78
-44 -78 -5 0 -43 70 -86 155 -88 175 -85 174 -98 15 -13 -165 -14 -170 -42
-170 -23 0 -25 3 -21 33 44 309 62 427 68 427 4 0 36 -57 73 -127z m706 44
c29 -70 97 -230 147 -344 l14 -33 -38 0 -39 0 -33 85 -33 86 -80 -3 -80 -3
-28 -80 c-25 -75 -29 -80 -58 -83 l-31 -3 36 78 c19 43 61 134 91 203 68 153
81 180 91 180 4 0 22 -37 41 -83z m1495 -87 c87 -93 160 -170 163 -170 3 0 3
74 0 165 l-6 165 27 0 27 0 -7 -97 c-4 -54 -7 -156 -6 -228 0 -71 -4 -130 -9
-130 -4 0 -45 41 -90 90 -45 50 -116 126 -157 170 l-76 80 2 -168 3 -167 -29
0 -29 0 7 61 c3 34 6 138 6 230 0 93 4 169 9 169 5 0 79 -76 165 -170z m-3701
135 l4 -26 -68 7 -69 7 0 -207 0 -206 -35 0 -35 0 0 206 0 207 -70 -7 -70 -7
0 25 0 26 169 0 169 0 5 -25z m2691 15 c46 -17 66 -46 66 -94 0 -52 -31 -96
-82 -116 -18 -8 -35 -15 -37 -16 -2 -2 35 -50 83 -108 l86 -106 -43 0 c-43 0
-44 1 -123 102 -43 56 -85 104 -91 106 -10 3 -13 -22 -13 -102 l0 -106 -32 0
-33 0 0 225 0 225 97 0 c53 0 108 -4 122 -10z m499 -15 l4 -26 -68 7 -69 7 0
-207 0 -206 -35 0 -35 0 0 206 0 207 -69 -7 -68 -7 0 26 0 25 167 0 168 0 5
-25z m173 -200 l-1 -225 -32 0 -33 0 0 225 0 225 33 0 33 0 0 -225z m484 -744
c44 -5 -43 -9 -270 -11 -184 -1 -346 -4 -360 -6 -14 -2 -686 -5 -1495 -6
-1418 -3 -2833 8 -2820 21 14 13 1052 18 2925 14 1075 -2 1984 -8 2020 -12z
m-4336 -335 c73 -32 121 -69 156 -122 l29 -42 -67 -41 -67 -41 -37 44 c-137
160 -407 61 -408 -149 0 -73 17 -121 57 -166 52 -58 100 -79 176 -79 82 0 139
29 182 91 l31 46 67 -34 c37 -18 67 -38 67 -44 0 -45 -104 -148 -187 -186 -38
-18 -81 -28 -129 -31 -204 -13 -358 97 -410 291 -57 215 78 442 290 487 69 15
187 4 250 -24z m2196 -76 l0 -70 -75 0 -75 0 0 70 0 70 75 0 75 0 0 -70z
m1990 -20 l0 -90 50 0 50 0 0 -70 0 -70 -50 0 -50 0 0 -117 c0 -133 9 -153 67
-153 l33 0 0 -70 0 -70 -59 0 c-71 0 -106 12 -144 48 -38 36 -47 77 -54 230
l-6 132 -43 0 -44 0 0 70 0 70 45 0 45 0 0 90 0 90 80 0 80 0 0 -90z m136 72
c1 -7 0 -8 -3 -2 -10 20 -20 10 -15 -15 6 -31 -19 -31 -30 0 -6 18 -6 18 -7
-3 -1 -30 28 -41 45 -17 12 16 14 16 14 3 0 -19 -26 -31 -51 -23 -19 6 -27 54
-12 69 11 11 56 2 59 -12z m-3700 -180 c98 -50 153 -131 162 -237 11 -147 -83
-274 -227 -305 -198 -42 -375 131 -339 332 17 98 92 189 182 222 57 22 169 15
222 -12z m545 16 c19 -6 45 -20 59 -31 l25 -19 3 26 c3 25 5 26 78 26 l74 0 0
-307 c0 -288 -2 -311 -21 -353 -45 -100 -123 -151 -241 -158 -122 -7 -244 46
-291 126 l-17 31 60 35 c34 20 65 36 69 36 5 0 16 -12 26 -26 19 -30 87 -63
128 -64 39 0 92 27 112 56 9 14 19 48 22 75 l6 50 -38 -25 c-100 -68 -229 -52
-317 38 -55 56 -72 100 -76 194 -5 100 19 169 77 226 66 65 179 93 262 64z
m680 1 c47 -16 88 -56 112 -109 18 -39 21 -71 24 -242 l4 -198 -80 0 -80 0 -3
184 c-3 178 -4 185 -26 209 -31 32 -65 41 -108 27 -57 -19 -64 -45 -64 -245
l0 -175 -80 0 -80 0 0 275 0 275 75 0 c73 0 75 -1 75 -25 0 -29 12 -32 31 -9
32 39 131 56 200 33z m1285 -14 c27 -14 50 -25 52 -25 1 0 2 9 2 20 0 18 7 20
80 20 l80 0 0 -275 0 -275 -80 0 c-73 0 -80 2 -80 20 0 19 -2 19 -45 -5 -97
-51 -206 -37 -290 37 -65 57 -89 115 -89 218 -1 74 3 93 28 144 45 91 130 144
237 145 41 1 69 -6 105 -24z m669 6 c97 -45 115 -99 115 -351 l0 -190 -80 0
-80 0 0 184 c0 169 -2 185 -20 209 -43 55 -130 42 -162 -23 -15 -29 -18 -63
-18 -202 l0 -168 -74 0 c-69 0 -74 2 -77 23 -2 12 -3 136 -1 275 l3 252 75 0
c73 0 74 0 74 -26 l0 -25 29 20 c16 12 39 25 52 30 40 16 121 12 164 -8z
m-1605 -271 l0 -280 -75 0 -75 0 0 280 0 280 75 0 75 0 0 -280z m550 211 l0
-70 -142 -140 -143 -140 143 -1 142 0 0 -65 0 -65 -250 0 -250 0 0 62 0 63
142 142 143 143 -138 0 -137 0 0 70 0 70 245 0 245 0 0 -69z m-2757 -1039 c73
-66 58 -199 -28 -242 -65 -32 -158 -12 -198 41 -43 59 -28 168 28 205 54 35
157 33 198 -4z m522 -63 c28 -55 53 -102 57 -105 3 -2 32 43 63 102 31 58 58
104 60 102 4 -4 35 -246 35 -272 0 -9 -8 -16 -19 -16 -17 0 -20 10 -27 67 -13
127 -14 128 -68 25 -26 -51 -48 -92 -50 -92 -2 0 -22 38 -45 85 -23 47 -46 85
-50 85 -5 0 -12 -38 -16 -85 -7 -76 -10 -85 -27 -85 -17 0 -19 5 -14 25 4 14
11 58 16 98 18 140 23 167 29 167 3 0 29 -46 56 -101z m1056 -50 l58 -140 -25
3 c-21 2 -29 12 -43 53 l-17 50 -49 0 -48 0 -20 -52 c-14 -38 -25 -53 -38 -53
-16 0 -15 8 17 78 20 42 47 104 61 137 31 73 33 78 41 71 3 -4 32 -69 63 -147z
m530 125 c34 -17 45 -31 60 -81 15 -52 0 -112 -36 -149 -57 -57 -170 -51 -225
13 -26 29 -30 41 -30 93 0 52 4 64 30 94 47 53 131 66 201 30z m359 -81 c0 79
3 97 15 97 13 0 15 -22 15 -140 0 -77 -3 -140 -7 -140 -5 0 -48 43 -96 95 -49
52 -93 95 -98 95 -6 0 -7 -37 -3 -95 7 -93 6 -95 -15 -95 -24 0 -25 9 -14 184
l6 107 98 -103 98 -103 1 98z m1343 20 c20 -49 47 -114 61 -146 l26 -58 -26 3
c-22 2 -30 12 -46 56 l-20 53 -46 -3 c-46 -3 -47 -4 -67 -55 -13 -36 -25 -53
-37 -53 -16 0 -17 3 -6 29 7 15 36 81 63 144 28 64 53 117 56 117 4 0 23 -39
42 -87z m248 -18 c29 -55 53 -101 55 -103 1 -2 29 45 62 104 68 121 65 122 82
-36 6 -58 14 -115 17 -127 4 -19 1 -23 -20 -23 -24 0 -25 3 -32 90 -4 50 -10
90 -14 90 -4 0 -28 -40 -52 -90 -24 -49 -46 -90 -49 -89 -3 0 -25 41 -49 91
-51 102 -59 100 -60 -15 -1 -51 -5 -69 -16 -74 -9 -3 -19 -3 -22 0 -5 6 23
245 33 276 6 18 4 21 65 -94z m-4381 80 c0 -11 -12 -15 -50 -15 l-50 0 0 -45
0 -45 45 0 c33 0 45 -4 45 -15 0 -11 -12 -15 -45 -15 l-45 0 0 -65 c0 -61 -1
-65 -23 -65 -22 0 -22 2 -24 140 l-2 140 75 0 c59 0 74 -3 74 -15z m614 -6
c15 -12 26 -30 26 -45 0 -25 -40 -74 -60 -74 -18 0 -11 -14 40 -78 l51 -62
-29 0 c-24 0 -38 11 -78 65 -27 35 -52 65 -56 65 -5 0 -8 -29 -8 -65 0 -58 -2
-65 -20 -65 -19 0 -20 7 -20 140 l0 140 64 0 c49 0 69 -5 90 -21z m586 -83 c0
-127 13 -151 80 -151 67 0 80 24 80 151 0 88 2 104 16 104 14 0 15 -15 12
-114 -3 -130 -12 -148 -81 -167 -52 -14 -118 9 -136 47 -6 14 -11 72 -11 129
0 98 1 105 20 105 19 0 20 -7 20 -104z m340 -21 l0 -125 55 0 c42 0 55 -3 55
-15 0 -12 -15 -15 -75 -15 l-75 0 0 140 c0 133 1 140 20 140 19 0 20 -7 20
-125z m1530 110 c0 -11 -12 -15 -50 -15 l-50 0 0 -46 0 -47 45 5 c39 5 45 3
45 -13 0 -16 -8 -19 -45 -19 l-45 0 0 -50 0 -50 50 0 c38 0 50 -4 50 -15 0
-12 -15 -15 -74 -15 l-74 0 0 140 0 140 74 0 c59 0 74 -3 74 -15z m113 8 c-7
-2 -14 -21 -14 -41 -2 -34 -2 -34 -6 -7 -2 17 -12 36 -21 43 -13 10 -11 12 19
11 19 0 28 -3 22 -6z m63 -32 c2 -2 12 7 23 20 l20 24 1 -27 c0 -14 3 -33 6
-42 3 -9 1 -16 -4 -16 -6 0 -13 10 -15 23 l-4 22 -8 -22 c-4 -13 -11 -23 -15
-23 -4 0 -11 10 -15 23 l-8 22 -4 -22 c-6 -33 -21 -28 -16 5 9 52 13 59 25 37
6 -11 12 -22 14 -24z m414 24 c0 -11 -11 -15 -40 -15 l-40 0 0 -125 c0 -118
-1 -125 -20 -125 -19 0 -20 7 -20 125 l0 125 -40 0 c-29 0 -40 4 -40 15 0 12
18 15 100 15 82 0 100 -3 100 -15z m230 0 c0 -11 -12 -15 -50 -15 l-50 0 0
-46 0 -47 45 5 c39 5 45 3 45 -13 0 -16 -8 -19 -45 -19 l-45 0 0 -50 0 -50 50
0 c38 0 50 -4 50 -15 0 -12 -15 -15 -72 -15 l-73 0 0 140 0 140 73 0 c57 0 72
-3 72 -15z"/>
<path d="M4350 5824 c0 -9 9 -29 21 -45 l20 -29 460 0 460 0 -18 31 c-35 59
-31 59 -508 59 -392 0 -435 -2 -435 -16z"/>
<path d="M5310 5835 c0 -3 11 -23 25 -45 l25 -40 405 0 c259 0 405 4 405 10 0
5 -13 24 -29 42 l-29 33 -401 3 c-221 1 -401 0 -401 -3z"/>
<path d="M6674 5824 c-26 -12 -54 -49 -54 -70 0 -2 183 -3 406 -2 l406 3 25
43 25 42 -388 0 c-330 0 -394 -3 -420 -16z"/>
<path d="M7540 5825 c-14 -7 -33 -27 -43 -44 l-18 -31 461 0 460 0 20 33 c11
17 20 38 20 45 0 19 -865 17 -900 -3z"/>
<path d="M4470 5704 c0 -19 38 -66 59 -71 13 -3 98 -1 190 6 91 6 234 16 316
22 308 20 316 21 312 32 -3 9 -121 13 -440 15 -240 1 -437 -1 -437 -4z"/>
<path d="M5392 5699 c2 -6 7 -10 11 -10 4 1 36 1 72 1 37 0 65 4 65 10 0 6
-32 10 -76 10 -49 0 -74 -4 -72 -11z"/>
<path d="M5573 5598 l2 -113 823 -3 822 -2 0 115 0 115 -825 0 -825 0 3 -112z
m146 7 c36 -86 36 -85 16 -85 -9 0 -20 11 -25 25 -7 18 -17 25 -35 25 -17 0
-29 -8 -37 -25 -6 -14 -17 -25 -24 -25 -10 0 -8 12 7 47 36 83 51 113 59 113
4 0 21 -34 39 -75z m128 60 c8 -22 -4 -30 -22 -15 -12 10 -19 10 -27 2 -13
-13 6 -42 28 -42 21 0 35 -35 25 -63 -16 -42 -91 -47 -91 -6 0 16 3 17 19 8
21 -14 55 -5 49 13 -3 7 -18 19 -34 28 -34 19 -42 51 -19 74 21 20 64 21 72 1z
m136 0 c-1 -5 -11 -11 -23 -13 -18 -3 -20 -11 -20 -68 0 -50 -3 -64 -15 -64
-12 0 -15 14 -15 65 0 63 -1 65 -25 65 -16 0 -25 6 -25 15 0 13 11 15 63 13
34 -2 61 -7 60 -13z m142 -10 c69 -68 -16 -176 -103 -131 -34 17 -42 34 -42
81 0 68 95 101 145 50z m108 -25 c25 -27 48 -50 51 -50 3 0 6 23 6 50 0 28 5
50 10 50 6 0 10 -33 10 -80 0 -44 -4 -80 -9 -80 -4 0 -29 23 -55 50 -26 28
-49 50 -51 50 -3 0 -5 -22 -5 -50 0 -27 -4 -50 -10 -50 -6 0 -10 33 -10 80 0
44 4 80 9 80 5 0 29 -22 54 -50z m223 -2 c26 -51 27 -52 43 -31 9 11 25 36 35
54 l19 34 8 -25 c4 -14 7 -46 8 -72 1 -26 5 -49 10 -52 5 -3 24 28 42 69 18
41 36 75 39 75 8 0 70 -134 70 -150 0 -21 -31 -9 -40 15 -6 17 -17 25 -33 25
-16 0 -28 -9 -35 -25 -9 -19 -19 -25 -41 -25 -27 0 -31 4 -36 38 -4 20 -8 41
-9 46 -1 5 -12 -12 -24 -37 -12 -26 -26 -47 -30 -47 -4 0 -18 19 -29 43 l-21
42 -7 -42 c-5 -28 -13 -43 -22 -43 -9 0 -13 6 -9 15 3 8 8 44 12 80 4 36 11
65 15 65 5 0 21 -23 35 -52z m375 42 c23 -13 25 -43 4 -60 -20 -17 -19 -24 11
-59 l26 -31 -24 0 c-14 0 -30 11 -43 30 -25 38 -35 38 -35 0 0 -16 -4 -30 -10
-30 -6 0 -10 33 -10 80 l0 80 31 0 c17 0 39 -5 50 -10z m149 -5 c0 -8 -9 -15
-20 -15 -18 0 -20 -7 -20 -65 0 -51 -3 -65 -15 -65 -12 0 -15 14 -15 65 0 63
-1 65 -25 65 -16 0 -25 6 -25 15 0 12 13 15 60 15 47 0 60 -3 60 -15z m48 -68
c3 -72 1 -77 -18 -77 -18 0 -20 6 -20 81 0 71 2 80 18 77 14 -3 17 -16 20 -81z
m85 33 c25 -27 48 -50 51 -50 3 0 6 23 6 50 0 28 5 50 10 50 6 0 10 -33 10
-80 0 -44 -4 -80 -9 -80 -4 0 -29 23 -55 50 -26 28 -49 50 -51 50 -3 0 -5 -22
-5 -50 0 -27 -4 -50 -10 -50 -6 0 -10 33 -10 80 0 44 4 80 9 80 5 0 29 -22 54
-50z"/>
<path d="M5666 5611 c-4 -5 -2 -12 3 -15 5 -4 12 -2 15 3 4 5 2 12 -3 15 -5 4
-12 2 -15 -3z"/>
<path d="M6026 5641 c-27 -29 -18 -82 17 -101 27 -14 29 -14 53 13 28 33 30
54 8 85 -19 27 -55 29 -78 3z"/>
<path d="M6650 5613 c0 -13 5 -23 10 -23 13 0 13 11 0 30 -8 12 -10 11 -10 -7z"/>
<path d="M6777 5653 c-12 -12 -7 -43 7 -43 18 0 39 27 31 40 -7 11 -28 13 -38
3z"/>
<path d="M7256 5701 c16 -16 133 -19 146 -4 8 11 -5 13 -73 13 -49 0 -79 -4
-73 -9z"/>
<path d="M7447 5696 c-6 -16 1 -17 313 -36 96 -6 230 -15 298 -21 209 -16 217
-15 241 27 12 19 21 37 21 40 0 2 -195 4 -434 4 -366 0 -435 -2 -439 -14z"/>
<path d="M5432 5639 c2 -6 7 -10 11 -10 4 1 27 1 52 1 25 0 45 5 45 10 0 6
-25 10 -56 10 -35 0 -54 -4 -52 -11z"/>
<path d="M7256 5641 c15 -15 97 -18 101 -3 3 9 -11 12 -53 12 -35 0 -54 -4
-48 -9z"/>
<path d="M5265 5634 c-16 -2 -109 -8 -205 -14 -231 -14 -454 -31 -458 -35 -11
-10 35 -65 53 -65 23 0 348 42 544 71 74 10 147 19 162 19 19 0 29 5 29 15 0
15 -36 17 -125 9z"/>
<path d="M7400 5626 c0 -12 9 -16 35 -16 18 0 56 -4 82 -9 26 -5 86 -14 133
-20 47 -6 170 -22 274 -36 103 -14 198 -25 210 -25 13 0 28 12 39 31 10 18 16
33 15 35 -3 3 -178 16 -443 34 -82 5 -194 12 -247 16 -86 6 -98 4 -98 -10z"/>
<path d="M5507 5592 c-16 -2 -26 -8 -24 -15 3 -10 45 -11 56 -2 10 10 -8 20
-32 17z"/>
<path d="M7250 5586 c0 -19 51 -31 61 -14 10 15 11 14 -28 21 -24 5 -33 3 -33
-7z"/>
<path d="M5350 5570 c-62 -9 -189 -26 -300 -41 -41 -5 -131 -18 -200 -27
l-125 -18 60 -19 c76 -24 130 -22 280 10 66 14 176 37 245 51 69 15 127 28
129 29 6 7 -10 25 -22 24 -7 -1 -37 -5 -67 -9z"/>
<path d="M7355 5569 c-4 -6 -5 -12 -4 -14 2 -2 60 -15 129 -29 414 -88 432
-90 525 -61 l60 19 -160 22 c-88 12 -198 28 -245 34 -47 6 -114 15 -150 20
-36 5 -84 11 -107 14 -25 4 -44 2 -48 -5z"/>
<path d="M7250 5519 c0 -5 5 -7 10 -4 6 3 10 8 10 11 0 2 -4 4 -10 4 -5 0 -10
-5 -10 -11z"/>
<path d="M5235 5470 c-126 -27 -237 -49 -244 -49 -50 -2 92 -51 148 -51 16 0
40 4 53 9 13 6 84 28 158 51 74 23 141 43 149 46 11 3 10 8 -4 24 -10 11 -21
20 -24 19 -3 0 -109 -23 -236 -49z"/>
<path d="M7296 5501 c-10 -10 -14 -21 -9 -24 23 -13 346 -107 368 -107 31 0
136 28 148 40 5 4 -15 12 -45 18 -84 15 -411 82 -429 88 -9 2 -23 -4 -33 -15z"/>
<path d="M5490 5430 c-44 -14 -230 -71 -275 -84 -11 -4 153 -56 176 -56 16 0
219 93 218 100 0 3 -15 17 -32 31 l-32 26 -55 -17z"/>
<path d="M5610 5445 c0 -2 11 -11 23 -20 22 -14 28 -14 60 0 21 8 37 17 37 20
0 3 -27 5 -60 5 -33 0 -60 -2 -60 -5z"/>
<path d="M5768 5417 c-37 -18 -67 -35 -68 -39 0 -8 70 -58 81 -58 5 0 165 113
178 125 2 3 -25 5 -60 4 -50 0 -79 -8 -131 -32z"/>
<path d="M5928 5372 l-106 -77 41 -22 42 -22 60 62 c33 35 76 79 94 100 l35
37 -30 0 c-20 -1 -62 -25 -136 -78z"/>
<path d="M6051 5341 l-102 -109 51 -17 c28 -9 54 -15 56 -12 8 7 144 238 144
243 0 2 -11 4 -24 4 -17 0 -51 -29 -125 -109z"/>
<path d="M6176 5319 c-43 -72 -76 -132 -74 -134 3 -4 112 -24 115 -22 2 3 65
236 71 265 3 17 0 22 -16 22 -14 0 -39 -33 -96 -131z"/>
<path d="M6335 5438 c-18 -55 -64 -229 -67 -253 -3 -30 -2 -30 50 -33 l52 -3
0 150 c0 129 -2 151 -15 151 -9 0 -18 -6 -20 -12z"/>
<path d="M6410 5300 l0 -150 54 0 c30 0 58 4 61 10 3 5 -3 40 -14 77 -11 38
-29 101 -41 141 -17 58 -25 72 -40 72 -19 0 -20 -8 -20 -150z"/>
<path d="M6520 5353 c15 -54 33 -119 40 -146 10 -36 17 -46 29 -43 9 3 35 8
59 11 23 4 42 8 42 10 0 2 -34 62 -76 134 -62 106 -81 131 -99 131 l-23 0 28
-97z"/>
<path d="M6590 5444 c0 -11 143 -244 150 -244 3 0 28 7 53 16 l47 16 -101 109
c-74 80 -108 109 -125 109 -13 0 -24 -3 -24 -6z"/>
<path d="M6700 5444 c0 -4 41 -49 91 -100 l92 -93 38 20 c22 11 39 21 39 24 0
2 -47 38 -105 79 -64 46 -115 76 -130 76 -14 0 -25 -3 -25 -6z"/>
<path d="M6836 5442 c20 -17 120 -90 147 -107 27 -17 28 -17 67 10 22 15 40
29 40 31 0 3 -32 20 -72 39 -57 28 -83 35 -132 35 -33 0 -56 -4 -50 -8z"/>
<path d="M7088 5429 c40 -17 45 -18 68 -3 13 9 24 18 24 20 0 2 -30 4 -67 3
l-68 0 43 -20z"/>
<path d="M7210 5415 l-30 -31 102 -47 c57 -26 110 -47 118 -47 18 0 152 41
162 49 4 4 -66 30 -157 57 l-164 51 -31 -32z"/>
<path d="M5538 5307 c-63 -29 -108 -57 -108 -65 0 -20 64 -82 87 -83 36 -2 49
4 127 59 44 32 84 60 90 64 11 7 -6 23 -63 59 -25 16 -30 14 -133 -34z"/>
<path d="M7095 5329 c-22 -17 -40 -34 -40 -39 0 -10 151 -119 180 -130 39 -15
125 43 125 85 0 9 -179 100 -219 112 -3 1 -24 -12 -46 -28z"/>
<path d="M5692 5202 l-92 -67 34 -12 c19 -6 56 -15 81 -19 l46 -6 55 58 c30
33 54 61 54 64 0 3 -20 15 -43 26 l-43 22 -92 -66z"/>
<path d="M6963 5246 c-23 -11 -43 -23 -43 -26 0 -3 24 -31 54 -64 54 -58 55
-59 98 -52 54 8 108 25 108 34 0 4 -15 17 -33 28 -17 12 -57 40 -87 62 l-55
40 -42 -22z"/>
<path d="M5856 5141 c-32 -32 -54 -61 -49 -64 4 -2 39 -12 76 -21 79 -20 81
-19 121 54 20 38 24 51 14 55 -27 10 -101 35 -102 35 -1 0 -28 -26 -60 -59z"/>
<path d="M6818 5182 c-26 -9 -50 -20 -53 -24 -7 -7 60 -118 71 -118 7 0 122
29 141 35 11 4 -93 126 -106 124 -3 0 -27 -8 -53 -17z"/>
<path d="M6067 5131 c-8 -9 -25 -37 -40 -62 l-26 -46 59 -16 c87 -24 99 -23
115 17 8 19 16 49 17 67 3 31 2 32 -55 44 -49 10 -59 9 -70 -4z"/>
<path d="M6680 5140 c-14 -4 -40 -8 -59 -9 -32 -1 -33 -2 -28 -34 3 -18 12
-50 21 -70 18 -43 32 -46 118 -19 l56 17 -36 62 c-21 35 -39 62 -42 62 -3 -1
-16 -5 -30 -9z"/>
<path d="M6244 5106 c-2 -6 -10 -33 -18 -60 l-15 -49 54 53 c30 30 55 55 55
56 0 8 -73 8 -76 0z"/>
<path d="M6502 5111 l-33 -6 51 -50 c54 -53 56 -53 38 9 -14 52 -16 53 -56 47z"/>
<path d="M4053 4243 l-31 -68 55 -3 c31 -2 57 -1 60 2 2 2 -9 34 -25 71 l-29
66 -30 -68z"/>
<path d="M5197 4376 c-73 -27 -104 -71 -113 -163 -16 -148 72 -248 200 -229
134 20 193 211 105 337 -37 53 -128 79 -192 55z"/>
<path d="M7107 4238 l-25 -63 55 -3 c30 -2 57 -1 59 1 6 6 -48 127 -57 127 -4
0 -18 -28 -32 -62z"/>
<path d="M7548 4374 c-15 -5 -18 -18 -18 -84 0 -44 5 -82 10 -85 22 -14 94 8
122 35 34 34 36 70 6 104 -23 26 -83 40 -120 30z"/>
<path d="M4933 2760 c-87 -53 -82 -193 8 -242 44 -23 86 -23 127 2 66 41 89
116 55 187 -32 69 -123 94 -190 53z"/>
<path d="M5565 2776 c-52 -23 -78 -60 -82 -118 -7 -92 49 -159 136 -160 87 -1
145 66 138 160 -7 100 -102 158 -192 118z"/>
<path d="M7490 2772 c-40 -22 -80 -84 -80 -125 0 -38 23 -87 54 -116 20 -19
40 -26 86 -29 59 -4 61 -4 99 35 51 50 61 98 35 161 -11 25 -31 54 -45 65 -39
28 -106 33 -149 9z"/>
<path d="M4343 1810 c-60 -24 -72 -161 -19 -207 40 -34 99 -32 137 6 26 26 29
36 29 91 0 55 -3 65 -29 91 -31 30 -73 37 -118 19z"/>
<path d="M5977 1736 c-22 -47 -22 -46 13 -46 33 0 36 9 17 54 l-12 28 -18 -36z"/>
<path d="M6458 1800 c-56 -44 -57 -156 -1 -199 37 -30 97 -28 128 3 42 42 45
139 7 186 -27 33 -99 38 -134 10z"/>
<path d="M8236 1738 c-21 -49 -21 -48 14 -48 33 0 36 10 16 55 l-14 30 -16
-37z"/>
<path d="M4682 1811 c-9 -5 -12 -24 -10 -52 3 -42 4 -44 33 -42 26 2 65 33 65
52 0 28 -62 58 -88 42z"/>
</g>
</svg>
