<?xml version="1.0" standalone="no"?>
<!DOCTYPE svg PUBLIC "-//W3C//DTD SVG 20010904//EN"
 "http://www.w3.org/TR/2001/REC-SVG-20010904/DTD/svg10.dtd">
<svg version="1.0" xmlns="http://www.w3.org/2000/svg"
 width="220.000000pt" height="73.000000pt" viewBox="0 0 220.000000 73.000000"
 preserveAspectRatio="xMidYMid meet">

<g transform="translate(0.000000,73.000000) scale(0.100000,-0.100000)"
fill="#000000" stroke="none">
<path d="M323 699 c-114 -44 -207 -167 -221 -292 -6 -57 -9 -62 -33 -65 -24
-3 -59 -45 -59 -71 0 -7 21 -11 53 -11 l52 0 18 -45 c27 -64 101 -139 172
-172 52 -24 72 -28 150 -28 82 0 97 3 157 33 168 83 242 270 177 448 -29 80
-121 172 -202 203 -76 28 -191 28 -264 0z m249 -81 c25 -11 55 -29 65 -41 l20
-22 -66 -110 c-63 -105 -67 -110 -97 -107 -27 3 -34 -2 -53 -33 -26 -45 -26
-45 4 -45 29 0 33 -24 10 -54 -23 -30 -18 -36 28 -36 l42 0 88 155 c49 85 92
153 97 150 5 -3 13 -29 19 -57 28 -129 -51 -268 -178 -313 -85 -30 -177 -17
-255 34 l-40 26 42 3 41 3 111 194 c60 107 110 196 110 199 0 3 -19 6 -43 6
l-42 0 -66 -112 -65 -113 -82 -3 -82 -3 0 48 c1 146 150 274 300 256 25 -2 66
-14 92 -25z m-282 -362 c0 -3 -10 -21 -21 -41 l-21 -36 -24 33 c-13 17 -24 36
-24 40 0 4 20 8 45 8 25 0 45 -2 45 -4z"/>
<path d="M980 505 l0 -165 25 0 c23 0 24 3 27 78 l3 77 110 0 110 0 3 -77 c3
-75 4 -78 27 -78 l25 0 0 165 0 165 -25 0 c-24 0 -25 -2 -25 -65 l0 -66 -112
3 -113 3 -3 63 c-3 58 -4 62 -27 62 l-25 0 0 -165z"/>
<path d="M1405 578 c-25 -13 -45 -38 -45 -55 0 -18 39 -17 46 1 13 35 109 41
135 9 20 -23 -8 -40 -85 -52 -80 -12 -106 -31 -106 -78 0 -27 6 -37 33 -53 38
-24 75 -25 124 -5 25 11 40 12 47 5 15 -15 76 -13 76 4 0 7 -9 16 -20 19 -18
5 -20 14 -20 89 0 89 -3 99 -37 117 -27 14 -121 14 -148 -1z m141 -140 c-3
-13 -6 -26 -6 -30 0 -12 -57 -38 -84 -38 -39 0 -56 11 -56 35 0 29 8 35 68 45
81 13 85 13 78 -12z"/>
<path d="M1699 571 c-35 -27 -44 -61 -17 -61 11 0 28 10 37 22 14 17 28 21 66
20 52 0 69 -10 63 -38 -3 -15 -18 -21 -73 -30 -110 -16 -140 -43 -115 -104 20
-47 81 -61 155 -35 25 9 43 11 49 5 15 -15 66 -12 66 4 0 8 -7 16 -15 20 -12
4 -15 23 -15 85 0 108 -13 124 -106 129 -58 3 -73 1 -95 -17z m151 -134 c0
-31 -29 -56 -72 -64 -42 -6 -78 10 -78 37 0 24 10 30 68 40 78 13 82 12 82
-13z"/>
<path d="M2005 579 c-29 -17 -45 -40 -45 -66 0 -36 32 -60 91 -68 73 -9 86
-13 93 -30 9 -24 -22 -45 -65 -45 -47 0 -79 14 -79 35 0 9 -10 15 -25 15 -32
0 -33 -23 -1 -55 29 -29 98 -41 153 -26 45 12 58 24 68 62 11 44 -19 68 -105
82 -70 12 -75 14 -75 37 0 23 4 25 52 28 44 3 54 0 65 -17 13 -21 58 -30 58
-12 0 6 -11 22 -23 37 -20 23 -33 28 -83 31 -33 2 -68 -2 -79 -8z"/>
<path d="M980 175 c0 -98 1 -105 20 -105 17 0 20 7 20 45 l0 45 60 0 c47 0 60
3 60 15 0 12 -13 15 -60 15 l-60 0 0 30 0 30 66 0 c48 0 65 3 62 13 -3 8 -32
13 -86 15 l-82 3 0 -106z"/>
<path d="M1222 260 c-7 -12 -23 -20 -38 -20 -34 0 -26 -24 9 -28 26 -3 27 -5
27 -73 0 -62 2 -69 20 -69 19 0 20 7 20 105 0 78 -3 105 -13 105 -7 0 -18 -9
-25 -20z"/>
<path d="M1380 265 c0 -10 11 -15 35 -15 l35 0 0 -90 c0 -83 1 -90 20 -90 19
0 20 7 20 90 l0 90 40 0 c29 0 40 4 40 15 0 12 -17 15 -95 15 -78 0 -95 -3
-95 -15z"/>
<path d="M1585 219 c-32 -18 -45 -40 -45 -76 0 -59 62 -97 121 -73 36 15 59
50 33 50 -10 0 -26 -8 -36 -17 -14 -13 -25 -14 -45 -7 -14 5 -28 15 -31 22 -3
9 14 12 62 12 63 0 66 1 66 24 0 53 -76 93 -125 65z m73 -31 c21 -21 13 -28
-33 -28 -25 0 -45 4 -45 8 0 15 24 32 45 32 12 0 26 -5 33 -12z"/>
<path d="M1762 214 c-12 -8 -22 -22 -22 -30 0 -19 26 -18 34 1 7 20 76 21 76
1 0 -16 -21 -26 -54 -26 -29 0 -66 -27 -66 -49 0 -24 24 -43 52 -42 13 0 47 1
76 1 28 1 52 5 52 11 0 5 -4 9 -10 9 -5 0 -10 23 -10 50 0 37 -5 55 -20 70
-24 24 -77 26 -108 4z m88 -89 c0 -21 -47 -42 -67 -29 -21 13 -18 28 9 36 40
11 58 9 58 -7z"/>
<path d="M1981 221 c-7 -5 -22 -6 -32 -4 -17 5 -19 -1 -19 -71 0 -61 3 -76 15
-76 11 0 15 12 15 49 0 55 19 84 54 79 18 -3 21 -11 24 -65 3 -54 6 -63 22
-63 16 0 19 9 22 56 2 41 8 60 21 68 32 20 52 -4 55 -68 2 -41 7 -56 17 -56
12 0 15 15 15 65 0 58 -2 66 -26 81 -22 15 -31 16 -60 5 -24 -9 -39 -9 -53 -2
-24 13 -51 14 -70 2z"/>
</g>
</svg>
