<?xml version="1.0" standalone="no"?>
<!DOCTYPE svg PUBLIC "-//W3C//DTD SVG 20010904//EN"
 "http://www.w3.org/TR/2001/REC-SVG-20010904/DTD/svg10.dtd">
<svg version="1.0" xmlns="http://www.w3.org/2000/svg"
 width="300.000000pt" height="92.000000pt" viewBox="0 0 300.000000 92.000000"
 preserveAspectRatio="xMidYMid meet">

<g transform="translate(0.000000,92.000000) scale(0.100000,-0.100000)"
fill="#000000" stroke="none">
<path d="M690 766 l0 -85 -27 15 c-44 22 -72 17 -109 -20 -29 -29 -34 -41 -34
-81 0 -40 5 -52 34 -81 37 -37 65 -42 109 -20 15 8 27 11 27 5 0 -5 16 -9 35
-9 l35 0 0 180 0 180 -35 0 -35 0 0 -84z m-10 -135 c22 -42 1 -91 -40 -91 -41
0 -68 68 -38 98 19 19 66 15 78 -7z"/>
<path d="M1400 670 l0 -180 35 0 35 0 0 180 0 180 -35 0 -35 0 0 -180z"/>
<path d="M1520 670 l0 -180 35 0 35 0 0 180 0 180 -35 0 -35 0 0 -180z"/>
<path d="M7 833 c-4 -3 -7 -82 -7 -175 l0 -168 40 0 40 0 0 145 0 145 30 0
c63 0 75 -81 15 -96 -39 -10 -35 -70 10 -139 33 -52 37 -55 75 -55 47 0 47 0
-14 85 -42 58 -43 62 -16 70 45 14 67 90 40 140 -19 36 -69 55 -142 55 -36 0
-68 -3 -71 -7z"/>
<path d="M860 666 l0 -176 95 0 c90 0 96 1 127 29 27 24 33 36 33 71 0 33 -6
47 -27 65 -26 22 -27 25 -12 53 18 37 11 72 -22 103 -20 19 -38 23 -109 27
l-85 5 0 -177z m144 98 c19 -18 19 -20 6 -45 -6 -10 -20 -19 -30 -19 -16 0
-20 -7 -20 -30 0 -26 3 -30 29 -30 36 0 53 -20 49 -57 -3 -26 -6 -28 -55 -31
l-53 -3 0 115 0 116 29 0 c16 0 37 -7 45 -16z"/>
<path d="M2527 772 c-57 -43 -64 -52 -84 -116 -13 -38 -30 -78 -39 -88 -19
-20 -6 -25 15 -5 11 10 11 8 1 -13 -13 -24 -13 -24 11 -9 18 12 34 13 63 7 50
-11 64 1 50 40 -10 27 -9 28 11 24 20 -3 22 0 19 25 -2 15 -1 21 2 13 4 -8 13
-23 21 -32 13 -15 13 -19 -1 -40 -9 -12 -16 -18 -16 -12 0 5 5 15 12 22 9 9 9
12 0 12 -13 0 -27 -44 -18 -59 4 -5 22 -15 42 -21 32 -11 38 -10 56 10 24 26
15 39 -14 21 -11 -7 -17 -8 -13 -2 3 6 1 11 -4 11 -6 0 -11 -5 -11 -11 0 -5
-5 -7 -12 -3 -8 5 -4 13 11 26 17 13 40 18 82 18 52 0 61 3 69 23 l9 22 0 -22
c1 -12 11 -32 24 -44 22 -21 22 -21 0 -10 -12 6 -24 16 -26 23 -4 9 -6 8 -6
-2 -1 -22 19 -40 43 -40 23 0 92 -22 102 -33 10 -9 34 -9 34 1 0 4 -18 26 -40
50 -50 54 -52 84 -7 97 40 12 48 47 17 80 l-22 23 21 11 c32 18 27 41 -6 32
-35 -9 -41 -41 -13 -66 23 -21 26 -53 6 -61 -8 -3 -37 5 -63 19 -26 14 -70 35
-98 47 -27 12 -76 35 -108 51 l-58 28 -62 -47z m53 -27 c-7 -9 -15 -13 -17
-11 -7 7 7 26 19 26 6 0 6 -6 -2 -15z m-76 -93 c2 -4 -6 -12 -19 -18 -22 -11
-23 -10 -12 7 13 20 23 24 31 11z"/>
<path d="M1780 795 c0 -8 11 -17 25 -21 l25 -6 -25 -30 c-14 -16 -25 -33 -25
-37 0 -19 34 -51 55 -51 18 0 26 -7 31 -27 5 -18 3 -28 -6 -31 -8 -3 -24 -16
-37 -31 -19 -19 -26 -22 -32 -12 -6 9 -11 10 -15 2 -4 -6 -3 -11 2 -11 6 0 8
-9 5 -20 -4 -14 0 -20 11 -20 9 0 16 5 16 10 0 6 9 10 19 10 11 0 23 5 26 10
3 6 22 10 41 10 25 0 42 8 60 27 20 22 34 27 72 28 49 0 92 -18 92 -40 0 -19
-27 -26 -40 -9 -7 8 -22 14 -33 14 -21 0 -20 -1 5 -26 24 -25 28 -26 64 -14
22 7 43 16 48 20 11 11 -1 60 -15 60 -6 0 -6 -6 1 -19 5 -11 10 -23 10 -28 -1
-4 -7 4 -16 19 -13 26 -13 29 8 50 15 15 20 17 15 5 -5 -13 -1 -17 20 -17 21
0 24 -3 15 -12 -7 -7 -12 -23 -12 -36 0 -22 3 -24 40 -19 23 2 43 7 47 10 3 4
15 0 26 -8 15 -10 22 -11 32 -2 10 9 8 18 -11 42 -13 17 -26 51 -30 75 -6 37
-17 55 -61 98 -32 31 -63 52 -76 52 -12 0 -49 -14 -81 -30 -32 -17 -64 -30
-71 -30 -7 0 -18 -6 -24 -14 -6 -7 -25 -16 -41 -20 -17 -3 -43 -15 -59 -27
-56 -41 -108 -3 -57 42 35 31 33 55 -5 68 -40 14 -39 14 -39 -4z m497 -161 c2
-10 0 -13 -3 -6 -3 6 -12 12 -20 12 -9 0 -12 5 -9 11 10 15 30 5 32 -17z
m-323 -53 c-10 -11 -28 -21 -39 -20 -18 0 -18 1 3 10 13 5 26 18 29 30 4 13 9
17 15 11 6 -6 3 -17 -8 -31z m306 -5 c0 -3 -4 -8 -10 -11 -5 -3 -10 -1 -10 4
0 6 5 11 10 11 6 0 10 -2 10 -4z m60 -11 c7 -9 8 -15 2 -15 -5 0 -12 7 -16 15
-3 8 -4 15 -2 15 2 0 9 -7 16 -15z m-450 -9 c0 -2 -7 -7 -16 -10 -8 -3 -12 -2
-9 4 6 10 25 14 25 6z"/>
<path d="M301 685 c-82 -70 -46 -191 61 -202 32 -3 52 1 76 16 39 25 40 34 6
49 -20 10 -28 9 -40 -3 -21 -21 -40 -19 -66 8 l-23 22 84 3 83 3 -5 37 c-14
83 -112 120 -176 67z m90 -25 c36 -20 23 -40 -26 -40 -49 0 -53 4 -28 32 19
21 27 22 54 8z"/>
<path d="M1140 630 c0 -84 12 -114 55 -135 42 -19 78 -19 115 0 42 21 50 43
50 129 l0 76 -35 0 -35 0 0 -75 c0 -71 -1 -75 -25 -81 -42 -10 -55 10 -55 87
l0 69 -35 0 -35 0 0 -70z"/>
<path d="M2082 561 c2 -7 7 -12 11 -12 12 1 9 15 -3 20 -7 2 -11 -2 -8 -8z"/>
<path d="M2940 550 c0 -5 5 -10 11 -10 5 0 7 5 4 10 -3 6 -8 10 -11 10 -2 0
-4 -4 -4 -10z"/>
<path d="M1750 514 c0 -8 5 -12 10 -9 6 3 10 10 10 16 0 5 -4 9 -10 9 -5 0
-10 -7 -10 -16z"/>
<path d="M2966 515 c4 -8 8 -15 10 -15 2 0 4 7 4 15 0 8 -4 15 -10 15 -5 0 -7
-7 -4 -15z"/>
<path d="M900 320 c0 -7 213 -10 620 -10 407 0 620 3 620 10 0 7 -213 10 -620
10 -407 0 -620 -3 -620 -10z"/>
<path d="M614 62 c-27 -18 -42 -74 -16 -58 8 5 35 66 29 66 -1 0 -7 -4 -13 -8z"/>
<path d="M806 40 c10 -18 26 -36 33 -38 11 -4 9 4 -5 28 -10 18 -26 36 -33 38
-11 4 -9 -4 5 -28z"/>
<path d="M2140 41 c0 -17 5 -31 10 -31 6 0 10 11 10 24 0 14 -4 28 -10 31 -6
4 -10 -7 -10 -24z"/>
<path d="M2970 51 c0 -20 -6 -21 -84 -21 -64 0 -88 4 -100 16 -24 23 -39 13
-21 -14 15 -20 24 -22 124 -22 l108 0 -5 25 c-6 32 -22 43 -22 16z"/>
<path d="M17 53 c-11 -10 -8 -43 3 -43 6 0 10 11 10 25 0 26 -2 29 -13 18z"/>
<path d="M220 36 c0 -14 5 -26 10 -26 6 0 10 9 10 19 0 11 -4 23 -10 26 -6 4
-10 -5 -10 -19z"/>
<path d="M1180 51 c0 -5 7 -17 16 -25 12 -13 38 -16 120 -16 63 0 104 4 104
10 0 6 -40 10 -99 10 -75 0 -101 4 -111 15 -14 17 -30 20 -30 6z"/>
<path d="M1760 35 c0 -14 5 -25 10 -25 6 0 10 11 10 25 0 14 -4 25 -10 25 -5
0 -10 -11 -10 -25z"/>
<path d="M2310 36 c32 -31 78 -42 86 -21 4 8 3 23 -1 32 -6 17 -7 17 -21 -2
-14 -18 -15 -18 -43 -2 -41 24 -50 21 -21 -7z"/>
</g>
</svg>
