<?xml version="1.0" standalone="no"?>
<!DOCTYPE svg PUBLIC "-//W3C//DTD SVG 20010904//EN"
 "http://www.w3.org/TR/2001/REC-SVG-20010904/DTD/svg10.dtd">
<svg version="1.0" xmlns="http://www.w3.org/2000/svg"
 width="409.000000pt" height="30.000000pt" viewBox="0 0 409.000000 30.000000"
 preserveAspectRatio="xMidYMid meet">

<g transform="translate(0.000000,30.000000) scale(0.100000,-0.100000)"
fill="#000000" stroke="none">
<path d="M182 280 c-6 -14 -30 -68 -55 -120 -36 -79 -42 -100 -35 -122 6 -16
13 -28 17 -28 5 0 23 35 41 77 40 93 46 101 55 74 4 -12 20 -52 37 -88 28 -62
31 -66 44 -48 22 29 18 44 -40 166 -50 106 -54 112 -64 89z"/>
<path d="M1382 161 c-34 -76 -62 -142 -62 -145 0 -3 13 -6 29 -6 21 0 32 6 36
20 5 17 15 20 60 20 45 0 55 -3 60 -20 4 -14 15 -20 36 -20 16 0 29 3 29 8 0
9 -115 271 -122 278 -3 2 -33 -58 -66 -135z m72 -59 c-35 -5 -38 1 -23 45 l12
38 18 -40 18 -40 -25 -3z"/>
<path d="M1650 158 l0 -148 30 0 30 0 0 73 0 72 45 -50 45 -50 35 40 c19 22
35 43 35 48 0 4 3 7 8 7 4 0 6 -31 4 -70 l-4 -70 36 0 36 0 0 140 c0 77 -4
140 -9 140 -5 0 -39 -34 -76 -75 l-67 -75 -42 47 c-24 27 -57 64 -74 83 l-31
35 -1 -147z"/>
<path d="M2099 289 c-15 -5 -33 -24 -40 -40 -19 -48 -3 -78 61 -114 38 -21 55
-37 55 -50 0 -26 -50 -33 -75 -10 -15 13 -23 14 -39 5 -27 -14 -26 -24 4 -49
35 -27 78 -35 120 -21 39 13 55 35 55 77 0 39 -17 60 -75 91 -27 15 -50 33
-53 39 -5 19 28 28 49 14 15 -8 24 -8 39 1 25 16 25 21 2 41 -24 22 -70 29
-103 16z"/>
<path d="M30 213 c51 -140 43 -129 63 -87 17 35 17 39 -3 100 -21 62 -23 64
-55 64 l-34 0 29 -77z"/>
<path d="M311 267 c-29 -76 -34 -106 -21 -136 7 -17 16 -31 20 -31 7 0 70 165
70 183 0 4 -14 7 -30 7 -23 0 -33 -6 -39 -23z"/>
<path d="M470 150 l0 -140 35 0 35 0 0 140 0 140 -35 0 -35 0 0 -140z"/>
<path d="M660 150 l0 -140 95 0 c95 0 95 0 95 25 0 24 -3 25 -60 25 l-60 0 0
115 0 115 -35 0 -35 0 0 -140z"/>
<path d="M920 150 l0 -140 95 0 c95 0 95 0 95 25 0 24 -2 25 -65 25 l-65 0 0
115 0 115 -30 0 -30 0 0 -140z"/>
<path d="M1170 150 l0 -140 35 0 35 0 0 140 0 140 -35 0 -35 0 0 -140z"/>
</g>
</svg>
